<svg width="480" height="169" viewBox="0 0 480 169" fill="none" xmlns="http://www.w3.org/2000/svg">
<g clip-path="url(#clip0_2719_1981)">
<path d="M69.319 0.158203H12.6122C5.84781 0.158203 0.363281 5.63967 0.363281 12.4003V156.691C0.363281 163.452 5.84781 168.933 12.6122 168.933H69.319C76.0834 168.933 81.5679 163.452 81.5679 156.691V12.4003C81.5679 5.63967 76.0834 0.158203 69.319 0.158203ZM73.419 12.4003V91.6967C73.419 92.9053 71.9566 93.5109 71.1001 92.6573L63.7031 85.2644C63.4476 85.009 63.3064 84.6637 63.3064 84.3038V9.65957C63.3064 8.91055 63.9148 8.30258 64.6642 8.30258H69.3214C71.5868 8.30258 73.4214 10.1362 73.4214 12.4003H73.419ZM36.8911 66.2616C36.8911 66.7018 36.6795 67.1177 36.3169 67.3681C35.9251 67.6405 35.5529 67.9494 35.2049 68.2971L29.0975 74.4011C28.241 75.2572 26.7786 74.6516 26.7786 73.4406V9.65957C26.7786 8.91055 27.3869 8.30258 28.1363 8.30258H35.5334C36.2828 8.30258 36.8911 8.91055 36.8911 9.65957V66.2616ZM46.3978 8.30258H53.7949C54.5443 8.30258 55.1526 8.91055 55.1526 9.65957V73.443C55.1526 74.6516 53.6903 75.2572 52.8338 74.4036L46.7263 68.2996C46.3784 67.9518 46.0036 67.6405 45.6143 67.3706C45.2518 67.1201 45.0401 66.7042 45.0401 66.2641V9.65957C45.0401 8.91055 45.6484 8.30258 46.3978 8.30258ZM12.6122 8.30258H17.2695C18.0189 8.30258 18.6272 8.91055 18.6272 9.65957V84.3038C18.6272 84.6637 18.4837 85.009 18.2306 85.2644L10.8335 92.6573C9.97703 93.5133 8.51465 92.9078 8.51465 91.6967V12.4003C8.51465 10.1362 10.3493 8.30258 12.6147 8.30258H12.6122ZM69.319 160.789H12.6122C10.3469 160.789 8.51222 158.955 8.51222 156.691V107.056C8.51222 106.697 8.65578 106.351 8.90883 106.096L40.0033 75.0188C40.5337 74.4887 41.3926 74.4887 41.9231 75.0188L73.0175 106.096C73.273 106.351 73.4141 106.697 73.4141 107.056V156.691C73.4141 158.955 71.5795 160.789 69.3141 160.789H69.319Z" fill="#222222"/>
<path d="M156.787 20.7748C161.084 22.9222 163.693 25.2227 166.532 28.9022L176.046 20.6216C171.212 14.6392 163.386 11.6504 154.485 11.6504L137.375 21.0837C135.304 23.8439 133.847 27.2947 133.847 30.3613C133.847 39.3325 141.365 42.8612 152.49 45.3149C162.311 47.4623 166.301 48.9968 166.301 54.8236C166.301 56.5867 165.995 58.5055 165.15 60.6504H151.646C147.349 58.503 144.74 56.2025 141.901 52.523L132.387 60.8036C137.222 66.786 144.356 69.7748 154.254 69.7748L171.594 60.2662C173.589 56.8153 174.893 53.3645 174.893 50.2979C174.893 40.867 169.138 37.3384 157.169 34.8068C145.66 32.4308 142.514 30.2057 142.514 25.911C142.514 24.1478 142.82 22.4601 143.665 20.7724H156.785L156.787 20.7748Z" fill="#222222"/>
<path d="M222.39 20.7748C226.916 22.6157 230.369 25.3759 233.209 28.98L242.801 20.6216C237.966 14.6392 229.756 11.6504 220.78 11.6504L198.07 21.6965C194.849 28.2918 193.082 35.4999 193.082 41.8641C193.082 58.8873 204.591 69.7772 222.468 69.7772H228.683L240.577 58.2744L238.812 55.5896C233.364 58.2744 229.989 59.8065 225.539 59.8065C211.959 59.8065 204.9 50.9885 204.9 34.6536C204.9 30.8185 205.438 26.6794 206.742 20.7748H222.395H222.39Z" fill="#222222"/>
<path d="M295.662 38.8722C299.346 34.0401 300.266 30.1296 300.266 26.7566C300.266 18.9356 295.584 12.7246 280.931 12.7246H258.91V69.0859L270.419 68.7017V47.3838H273.488L292.669 69.7741L305.558 67.4736L285.072 43.5487L295.659 38.8722H295.662ZM270.419 39.5629V20.5455H283.233C287.759 23.8432 288.528 28.4443 288.528 31.9705C288.528 34.2711 287.837 36.7249 286.61 39.5629H270.422H270.419Z" fill="#222222"/>
<path d="M357.345 20.547L360.032 12.7236H322.742V68.7031H357.345L360.032 60.8822H334.251V43.7812H353.048L355.659 35.9603H334.251V20.547H357.345Z" fill="#222222"/>
<path d="M413.431 20.547L416.115 12.7236H378.828V68.7031H413.431L416.115 60.8822H390.335V43.7812H409.134L411.743 35.9603H390.335V20.547H413.431Z" fill="#222222"/>
<path d="M471.972 12.7222V51.2189L443.124 12.1094L434.914 12.7222V69.086L442.511 68.7017V30.2828L471.359 69.3145L479.569 68.7017V12.3404L471.972 12.7222Z" fill="#222222"/>
<path d="M168.523 124.146H145.736V100.527L134.227 100.912V157.273L145.736 156.889V131.967H168.523V157.273L180.032 156.889V100.527L168.523 100.912V124.146Z" fill="#222222"/>
<path d="M236.728 108.733L239.414 100.912H202.125V156.889H236.728L239.414 149.068H213.634V131.967H232.431L235.042 124.146H213.634V108.733H236.728Z" fill="#222222"/>
<path d="M273.944 100.911L253.074 157.963L261.284 156.891L266.579 142.397H286.68L292.357 157.963L303.712 155.894L283.149 99.8389L273.942 100.914L273.944 100.911ZM269.418 134.576L276.63 115.021L283.767 134.576H269.421H269.418Z" fill="#222222"/>
<path d="M332.634 100.527L321.125 100.912V156.889H354.195L356.879 149.068H332.634V100.527Z" fill="#222222"/>
<path d="M364.172 108.733H380.514V157.273L392.023 156.889V108.733H405.603L408.289 100.912H366.856L364.172 108.733Z" fill="#222222"/>
<path d="M457.851 100.912V124.146H435.064V100.527L423.555 100.912V157.273L435.064 156.889V131.967H457.851V157.273L469.361 156.889V100.527L457.851 100.912Z" fill="#222222"/>
</g>
<defs>
<clipPath id="clip0_2719_1981">
<rect width="479.201" height="168.775" fill="white" transform="translate(0.363281 0.158203)"/>
</clipPath>
</defs>
</svg>
